<?xml version="1.0" encoding="iso-8859-1"?>
<!-- Generator: Adobe Illustrator 19.0.0, SVG Export Plug-In . SVG Version: 6.00 Build 0)  -->
<svg xmlns="http://www.w3.org/2000/svg" xmlns:xlink="http://www.w3.org/1999/xlink" version="1.1" id="Layer_1" x="0px" y="0px" viewBox="0 0 512 512" style="enable-background:new 0 0 512 512;" xml:space="preserve" width="512" height="512">
<g>
	<path d="M117.194,233.473L33.119,256l131.484,35.077l-41.598,23.833l-46.885-12.563l-39.394,79.673l88.696,5.721l12.547-46.829   l42.323-24.249l-35.232,131.486L241,352.212v48.574l-34.302,34.302l49.099,73.647l50.76-73.685L271,400.643v-48.848l96.939,96.354   L332.889,317.34l41.142,23.572l12.547,46.829l88.696-5.721l-39.394-79.673l-46.885,12.563l-41.416-23.729L478.881,256   l-131.302-35.182l41.416-23.729l46.885,12.563l39.394-79.673l-88.696-5.721l-12.547,46.829l-41.142,23.572l35.051-130.809   L271,160.206v-47.848l35.372-34.23L255.794,1.444l-48.921,76.643L241,112.213v47.574l-95.939-95.937l35.232,131.486l-42.323-24.249   l-12.547-46.829l-88.696,5.721l39.394,79.673l46.885-12.563l41.598,23.833L117.194,233.473z M149.326,256l52.324-13.851   L225.826,256l-24.176,13.851L149.326,256z M102.809,356.221l-19.245-1.242l8.548-17.288l14.613,3.916L102.809,356.221z    M203.017,347.771l13.967-52.129L241,281.882v27.905L203.017,347.771z M256.203,455.264l-10.901-16.353l10.871-10.871   l11.271,10.907L256.203,455.264z M310.089,348.162L271,309.714v-27.832l25.198,14.437L310.089,348.162z M419.889,337.691   l8.548,17.288l-19.245,1.242l-3.916-14.614L419.889,337.691z M362.968,256l-52.323,14.02L286.174,256l24.471-14.02L362.968,256z    M409.191,155.779l19.245,1.242l-8.548,17.288l-14.613-3.916L409.191,155.779z M310.089,163.838l-13.891,51.843L271,230.118   v-27.832L310.089,163.838z M256.206,56.556l11.422,17.317l-11.455,11.086l-11.046-11.046L256.206,56.556z M203.017,164.229   L241,202.213v27.906l-24.016-13.76L203.017,164.229z M92.111,174.309l-8.548-17.288l19.245-1.242l3.916,14.614L92.111,174.309z"/>
	<rect x="422" y="61" width="30" height="30"/>
	<rect x="302" width="30" height="30"/>
	<rect x="181" width="30" height="30"/>
	<rect x="482" y="181" width="30" height="30"/>
	<rect x="60" y="61" width="30" height="30"/>
	<rect y="181" width="30" height="30"/>
	<rect y="301" width="30" height="30"/>
	<rect x="90" y="422" width="30" height="30"/>
	<rect x="181" y="482" width="30" height="30"/>
	<rect x="302" y="482" width="30" height="30"/>
	<rect x="482" y="301" width="30" height="30"/>
	<rect x="392" y="422" width="30" height="30"/>
</g>















</svg>
