<?xml version="1.0" encoding="iso-8859-1"?>
<!-- Generator: Adobe Illustrator 19.0.0, SVG Export Plug-In . SVG Version: 6.00 Build 0)  -->
<svg version="1.1" id="Capa_1" xmlns="http://www.w3.org/2000/svg" xmlns:xlink="http://www.w3.org/1999/xlink" x="0px" y="0px"
	 viewBox="0 0 512.005 512.005" style="enable-background:new 0 0 512.005 512.005;" xml:space="preserve">
<g>
	<g>
		<g>
			<path d="M507.024,1.661c-3.729-2.354-8.5-2.167-12.083,0.49l-83.958,62.957l-43.917,14.645l16.625-66.488
				c1.083-4.375-0.688-8.969-4.458-11.468c-3.729-2.479-8.646-2.354-12.292,0.354l-82.5,61.863h-56.875l-82.5-61.863
				c-3.646-2.729-8.542-2.844-12.292-0.354c-3.771,2.5-5.542,7.094-4.458,11.468l16.625,66.488l-43.917-14.645L17.065,2.15
				c-3.562-2.677-8.354-2.865-12.083-0.49c-3.75,2.354-5.646,6.771-4.771,11.114l85.313,426.677
				c0.771,3.885,3.646,7.021,7.438,8.135l141.326,41.606l13.029,18.32c2,2.823,5.229,4.489,8.688,4.489s6.688-1.667,8.688-4.489
				l13.027-18.32l141.306-41.627c3.792-1.115,6.667-4.25,7.438-8.135l85.333-426.656C512.669,8.442,510.774,4.015,507.024,1.661z
				 M217.607,83.201c1.833,1.385,4.083,2.135,6.396,2.135h64c2.313,0,4.563-0.75,6.396-2.135l61.313-45.969l-34.875,160.177
				l-64.833,64.844l-64.833-64.844L156.294,37.232L217.607,83.201z M105.169,428.94L71.436,260.198l142.848,200.869L105.169,428.94z
				 M406.815,428.93L297.72,461.064l142.837-200.875L406.815,428.93z M450.793,209.007L256.003,482.93L61.207,209.027l-34.6-173.077
				l63,47.25c0.917,0.688,1.938,1.229,3.021,1.583l58.129,19.376l7.811,39.049l-58.357-25.009
				c-5.375-2.354-11.667,0.156-14.021,5.604c-2.313,5.406,0.188,11.677,5.604,14l71.85,30.793l3.629,18.145l-46.562-15.521
				c-5.542-1.844-11.625,1.146-13.5,6.74c-1.854,5.594,1.167,11.635,6.75,13.49l61.609,20.536l72.891,72.891
				c2.083,2.083,4.813,3.125,7.542,3.125s5.458-1.042,7.542-3.125l72.891-72.891l61.609-20.536c5.583-1.854,8.604-7.896,6.75-13.49
				c-1.875-5.594-7.875-8.594-13.5-6.74l-46.563,15.521l3.629-18.145l71.85-30.793c5.417-2.323,7.917-8.594,5.604-14
				c-2.354-5.448-8.646-7.948-14.021-5.604l-58.355,25.009l7.81-39.049l58.129-19.376c1.083-0.354,2.104-0.896,3.021-1.583l63-47.25
				L450.793,209.007z"/>
			<path d="M380.565,237.482c-3.292-2.979-8.021-3.688-12-1.688l-42.667,21.333c-1.021,0.51-1.958,1.188-2.771,2l-42.667,42.667
				c-3.271,3.281-4.063,8.302-1.938,12.427c1.854,3.594,5.521,5.781,9.479,5.781c0.583,0,1.167-0.052,1.75-0.146l64-10.667
				c3.688-0.615,6.771-3.104,8.146-6.563l21.333-53.333C384.878,245.19,383.815,240.482,380.565,237.482z M344.336,289.138
				l-25.25,4.208l17.896-17.906l16.021-8.021L344.336,289.138z"/>
			<path d="M188.878,259.128c-0.813-0.813-1.75-1.49-2.771-2l-42.667-21.333c-4-2-8.729-1.292-12,1.688
				c-3.25,3-4.312,7.708-2.667,11.813l21.333,53.333c1.375,3.458,4.458,5.948,8.146,6.563l64,10.667
				c0.583,0.094,1.167,0.146,1.75,0.146c3.958,0,7.646-2.188,9.479-5.781c2.125-4.125,1.333-9.146-1.938-12.427L188.878,259.128z
				 M167.669,289.138l-8.667-21.719l16.021,8.021l17.896,17.906L167.669,289.138z"/>
			<path d="M245.544,183.43c1,4.979,5.375,8.573,10.458,8.573s9.458-3.594,10.458-8.573l10.667-53.333
				c0.625-3.135-0.188-6.385-2.208-8.854c-2.021-2.469-5.063-3.906-8.25-3.906h-21.333c-3.188,0-6.229,1.438-8.25,3.906
				c-2.021,2.469-2.833,5.719-2.208,8.854L245.544,183.43z"/>
		</g>
	</g>
</g>
<g>
</g>
<g>
</g>
<g>
</g>
<g>
</g>
<g>
</g>
<g>
</g>
<g>
</g>
<g>
</g>
<g>
</g>
<g>
</g>
<g>
</g>
<g>
</g>
<g>
</g>
<g>
</g>
<g>
</g>
</svg>
